<svg width="48" height="48" viewBox="0 0 48 48" fill="none" xmlns="http://www.w3.org/2000/svg">
<g clip-path="url(#clip0_1705_2)">
<path d="M36 0H12C5.37258 0 0 5.37258 0 12V36C0 42.6274 5.37258 48 12 48H36C42.6274 48 48 42.6274 48 36V12C48 5.37258 42.6274 0 36 0Z" fill="#AC6AFF"/>
<path d="M19 18.625C19 17.9288 19.2766 17.2611 19.7689 16.7688C20.2611 16.2766 20.9288 16 21.625 16H24.25V21.25H21.625C20.9288 21.25 20.2611 20.9734 19.7689 20.4812C19.2766 19.9889 19 19.3212 19 18.625Z" stroke="#0E0C15" stroke-width="2" stroke-linecap="round" stroke-linejoin="round"/>
<path d="M24.25 16H26.875C27.2197 16 27.5611 16.0679 27.8795 16.1998C28.198 16.3317 28.4874 16.5251 28.7312 16.7688C28.9749 17.0126 29.1683 17.302 29.3002 17.6205C29.4321 17.9389 29.5 18.2803 29.5 18.625C29.5 18.9697 29.4321 19.3111 29.3002 19.6295C29.1683 19.948 28.9749 20.2374 28.7312 20.4812C28.4874 20.7249 28.198 20.9183 27.8795 21.0502C27.5611 21.1821 27.2197 21.25 26.875 21.25H24.25V16Z" stroke="#0E0C15" stroke-width="2" stroke-linecap="round" stroke-linejoin="round"/>
<path d="M24.25 23.875C24.25 23.5303 24.3179 23.1889 24.4498 22.8705C24.5817 22.552 24.7751 22.2626 25.0189 22.0189C25.2626 21.7751 25.552 21.5817 25.8705 21.4498C26.1889 21.3179 26.5303 21.25 26.875 21.25C27.2197 21.25 27.5611 21.3179 27.8795 21.4498C28.198 21.5817 28.4874 21.7751 28.7312 22.0189C28.9749 22.2626 29.1683 22.552 29.3002 22.8705C29.4321 23.1889 29.5 23.5303 29.5 23.875C29.5 24.2197 29.4321 24.5611 29.3002 24.8795C29.1683 25.198 28.9749 25.4874 28.7312 25.7312C28.4874 25.9749 28.198 26.1683 27.8795 26.3002C27.5611 26.4321 27.2197 26.5 26.875 26.5C26.5303 26.5 26.1889 26.4321 25.8705 26.3002C25.552 26.1683 25.2626 25.9749 25.0189 25.7312C24.7751 25.4874 24.5817 25.198 24.4498 24.8795C24.3179 24.5611 24.25 24.2197 24.25 23.875Z" stroke="#0E0C15" stroke-width="2" stroke-linecap="round" stroke-linejoin="round"/>
<path d="M19 29.125C19 28.4288 19.2766 27.7611 19.7689 27.2688C20.2611 26.7766 20.9288 26.5 21.625 26.5H24.25V29.125C24.25 29.8212 23.9735 30.4889 23.4812 30.9811C22.9889 31.4734 22.3212 31.75 21.625 31.75C20.9288 31.75 20.2611 31.4734 19.7689 30.9811C19.2766 30.4889 19 29.8212 19 29.125Z" stroke="#0E0C15" stroke-width="2" stroke-linecap="round" stroke-linejoin="round"/>
<path d="M19 23.875C19 23.1788 19.2766 22.5111 19.7689 22.0189C20.2611 21.5266 20.9288 21.25 21.625 21.25H24.25V26.5H21.625C20.9288 26.5 20.2611 26.2234 19.7689 25.7312C19.2766 25.2389 19 24.5712 19 23.875Z" stroke="#0E0C15" stroke-width="2" stroke-linecap="round" stroke-linejoin="round"/>
</g>
<defs>
<clipPath id="clip0_1705_2">
<rect width="48" height="48" fill="white"/>
</clipPath>
</defs>
</svg>
