<svg width="24" height="24" viewBox="0 0 24 24" fill="none" xmlns="http://www.w3.org/2000/svg">
<path d="M22.6798 1.32019C21.7999 0.440118 20.7398 0 19.5003 0H4.50003C3.26055 0 2.20046 0.440118 1.32021 1.32019C0.440125 2.20043 0 3.26044 0 4.49996V19.4999C0 20.7393 0.440125 21.7994 1.32021 22.6796C2.20046 23.5599 3.26055 24 4.50003 24H19.5002C20.7397 24 21.7998 23.5599 22.6796 22.6796C23.5599 21.7994 24 20.7393 24 19.4999V4.49996C23.9999 3.26044 23.5598 2.20026 22.6798 1.32019ZM7.31252 20.0936H3.70308V9.24981H7.31252V20.0936ZM6.98459 7.24219C6.60965 7.60158 6.11479 7.78131 5.50014 7.78131H5.48438C4.89068 7.78131 4.40908 7.60158 4.03917 7.24219C3.6692 6.88279 3.48433 6.43753 3.48433 5.90629C3.48433 5.36466 3.67457 4.91666 4.05466 4.56241C4.43502 4.20827 4.92713 4.03111 5.53122 4.03111C6.13537 4.03111 6.61977 4.20827 6.98443 4.56241C7.34897 4.91666 7.53652 5.36466 7.54687 5.90629C7.54681 6.43731 7.35953 6.88258 6.98459 7.24219ZM20.2971 20.0936H16.6876V14.2968C16.6876 12.6616 16.0837 11.8438 14.8753 11.8438C14.417 11.8438 14.0313 11.9714 13.719 12.2266C13.4062 12.4817 13.1719 12.7916 13.0159 13.1565C12.9428 13.3437 12.9065 13.6353 12.9065 14.0311V20.0935H9.29702C9.32827 13.552 9.32827 9.93724 9.29702 9.2497H12.9065V10.7806C13.6654 9.5941 14.743 8.9996 16.141 8.9996C17.391 8.9996 18.3963 9.41115 19.1567 10.2339C19.9172 11.0569 20.2973 12.2705 20.2973 13.8743V20.0936H20.2971Z" fill="#757185"/>
</svg>
